#tb 0: 1001/30000
0,          0,          0,        1,    62400, 702748bec18c500dd41d93ae74b11d56
0,          1,          1,        1,    62400, 4fb542190dab2fd673724d47451ff6ee
0,          2,          2,        1,    62400, dbb4d27d52797dab67e39d32092c9d44
0,          3,          3,        1,    62400, e4a0ed1572207b7ba433896bba711148
0,          4,          4,        1,    62400, 28ec32bc165f4f9d455efec8a7aa8737
0,          5,          5,        1,    62400, a95910575a6423abffb28ca38c384b34
0,          6,          6,        1,    62400, 791f1c558c5467725f4614a75a8a687e
0,          7,          7,        1,    62400, cfd3e12f84f7a811966721e890228313
0,          8,          8,        1,    62400, 824c5fdf938551c28ac1c996645ae52f
0,          9,          9,        1,    62400, 7465917fdd0206e393968232a0ec5193
